<svg width="47" height="18" viewBox="0 0 47 18" fill="none" xmlns="http://www.w3.org/2000/svg">
<path d="M8.436 7.024H6.084V6.816L6.836 6.224V1.68L4.676 7.016H4.284L2.14 1.616V6.296L2.972 6.736L2.836 7.016H1.004V6.808L1.756 6.216V1.472L0.932 1L1.068 0.72H2.7L4.732 5.864L6.772 0.72H8.508V0.927999L7.748 1.52V6.424L8.58 6.744L8.436 7.024ZM15.7516 7H13.4316V6.792L14.1516 6.2L13.5116 4.656H10.7916L10.0876 6.264L11.5276 6.72L11.3916 7H8.99162V6.792L9.71963 6.216L12.0236 0.968L12.7436 0.559999L15.0956 6.216L15.8956 6.72L15.7516 7ZM12.1916 1.464L10.9276 4.344H13.3836L12.1916 1.464ZM22.1623 7.024H20.7223L18.9143 4.168L18.5383 3.888L18.6423 3.68H19.1063C19.4849 3.68 19.7836 3.58933 20.0023 3.408C20.2209 3.22133 20.3303 2.96533 20.3303 2.64C20.3303 2.208 20.2103 1.848 19.9703 1.56C19.7303 1.272 19.3783 1.128 18.9143 1.128C18.6049 1.128 18.3223 1.21867 18.0663 1.4V6.44L18.8983 6.736L18.7623 7.016H16.4103V6.808L17.1623 6.224V1.288L16.3383 1L16.4743 0.72H17.3223C17.8076 0.72 18.2903 0.704 18.7703 0.672C19.1116 0.650667 19.3676 0.64 19.5383 0.64C19.8849 0.64 20.1943 0.712 20.4663 0.856C20.7383 1 20.9489 1.19467 21.0983 1.44C21.2476 1.68 21.3223 1.94667 21.3223 2.24C21.3223 2.50667 21.2369 2.76267 21.0663 3.008C20.8956 3.25333 20.6743 3.46667 20.4023 3.648C20.1356 3.824 19.8529 3.95733 19.5543 4.048L20.0583 4.224L21.3383 6.248L22.2983 6.744L22.1623 7.024ZM25.3045 6.728L25.1685 7.008H22.8165V6.8L23.5685 6.216V1.288L22.7445 0.992L22.8805 0.712H25.2325V0.92L24.4725 1.504V6.432L25.3045 6.728ZM28.8805 7.008H27.4805L24.9605 3.856L27.4405 1.696L26.5205 1L26.6565 0.72H28.7605V0.927999L25.8245 3.488L28.0725 6.264L29.0165 6.728L28.8805 7.008ZM34.3732 7H29.6212V6.792L30.3732 6.2V1.28L29.5492 0.992L29.6852 0.712H34.2932L34.6932 0.568V2.368L34.4932 2.424L33.5492 1.024H31.2772V3.632H32.5972L33.1812 2.584H33.3892V5.032L33.1092 5.176L32.6132 3.944H31.2772V6.688H33.5172L34.5732 5.12L34.7732 5.184V7.144L34.3732 7ZM41.665 2.528L41.465 2.584L40.409 1.024H39.385V6.424L40.217 6.72L40.073 7H37.721V6.792L38.473 6.2V1.024H37.481L36.425 2.584L36.225 2.528V0.568L36.625 0.712H41.265L41.665 0.568V2.528ZM3.972 11.952C4.34533 11.952 4.64133 11.8533 4.86 11.656C5.084 11.4587 5.196 11.1867 5.196 10.84C5.196 10.3387 5.068 9.928 4.812 9.608C4.556 9.28267 4.18267 9.12 3.692 9.12C3.31333 9.12 2.96933 9.22933 2.66 9.448V14.376L3.876 14.728L3.732 15.008H1.004V14.8L1.756 14.208V9.264L0.932 8.992L1.068 8.712H1.916C2.444 8.712 2.964 8.696 3.476 8.664C3.84933 8.64267 4.12667 8.632 4.308 8.632C4.676 8.632 5.00133 8.712 5.284 8.872C5.56667 9.02667 5.78533 9.24267 5.94 9.52C6.1 9.792 6.18 10.096 6.18 10.432C6.18 10.8 6.04667 11.1493 5.78 11.48C5.51333 11.8053 5.172 12.0613 4.756 12.248C4.34533 12.4347 3.93733 12.5173 3.532 12.496L3.148 12.216L3.292 11.936H3.98L3.972 11.952ZM11.9588 15H7.22275V14.792L7.97475 14.2V9.288L7.15075 8.992L7.28675 8.712H9.63875V8.92L8.87875 9.512V14.688H10.9988L12.1588 12.96L12.3588 13.024V15.144L11.9588 15ZM19.7126 15H17.3926V14.792L18.1126 14.2L17.4726 12.656H14.7526L14.0486 14.264L15.4886 14.72L15.3526 15H12.9526V14.792L13.6806 14.216L15.9846 8.968L16.7046 8.56L19.0566 14.216L19.8566 14.72L19.7126 15ZM16.1526 9.464L14.8886 12.344H17.3446L16.1526 9.464ZM23.8512 8.552C24.1232 8.552 24.4405 8.592 24.8032 8.672C25.1712 8.752 25.4379 8.83733 25.6032 8.928V10.448H25.3872C24.8859 9.6 24.2192 9.176 23.3872 9.176C23.0192 9.176 22.6859 9.28267 22.3872 9.496C22.0885 9.704 21.8539 9.99467 21.6832 10.368C21.5125 10.736 21.4272 11.152 21.4272 11.616C21.4272 12.1493 21.5099 12.64 21.6752 13.088C21.8405 13.5307 22.0939 13.8853 22.4352 14.152C22.7819 14.4187 23.2085 14.552 23.7152 14.552C24.1579 14.552 24.8005 14.1947 25.6432 13.48L25.8672 13.84L24.3952 14.984C24.2032 15.0533 24.0165 15.0987 23.8352 15.12C23.6592 15.1467 23.4699 15.16 23.2672 15.16C22.7179 15.16 22.2299 15.024 21.8032 14.752C21.3765 14.48 21.0432 14.1067 20.8032 13.632C20.5685 13.152 20.4512 12.608 20.4512 12C20.4512 11.376 20.6299 10.8 20.9872 10.272C21.3445 9.73867 21.7899 9.32 22.3232 9.016C22.8565 8.70667 23.3659 8.552 23.8512 8.552ZM31.6623 15H26.9103V14.792L27.6623 14.2V9.28L26.8383 8.992L26.9743 8.712H31.5823L31.9823 8.568V10.368L31.7823 10.424L30.8383 9.024H28.5663V11.632H29.8863L30.4703 10.584H30.6783V13.032L30.3983 13.176L29.9023 11.944H28.5663V14.688H30.8063L31.8623 13.12L32.0623 13.184V15.144L31.6623 15Z" fill="#F8F5F5"/>
<g clip-path="url(#clip0_43_33)">
<path d="M45.404 17.036H41.876V16.724L43.004 15.836V9.02L39.764 17.024H39.176L35.96 8.924V15.944L37.208 16.604L37.004 17.024H34.256V16.712L35.384 15.824V8.708L34.148 8L34.352 7.58H36.8L39.848 15.296L42.908 7.58H45.512V7.892L44.372 8.78V16.136L45.62 16.616L45.404 17.036Z" fill="#FEBD69"/>
<path d="M39.9037 14.8565C40.3145 15.2371 40.7408 15.4303 41.1825 15.4361C41.6302 15.4474 42.0307 15.2623 42.3841 14.8809C42.8953 14.3292 43.1731 13.7469 43.2177 13.1338C43.2677 12.5149 43.0227 11.9553 42.4828 11.455C42.0662 11.069 41.5762 10.8386 41.0129 10.7638L35.9889 16.186L36.968 17.813L36.5241 17.9743L33.5225 15.1931L33.7345 14.9643L35.1655 15.0796L40.2059 9.63974L39.5765 8.5004L40.0116 8.33097L40.9447 9.1955C41.5256 9.73379 42.1141 10.2463 42.7101 10.7331C43.1426 11.0902 43.4586 11.3612 43.6581 11.5461C44.063 11.9213 44.3394 12.341 44.4873 12.8052C44.6407 13.2636 44.6611 13.7241 44.5485 14.187C44.4472 14.6494 44.2253 15.0654 43.8828 15.4351C43.5076 15.84 43.0048 16.0885 42.3742 16.1804C41.7492 16.2665 41.1126 16.2002 40.4646 15.9815C39.8224 15.7682 39.2892 15.4432 38.865 15.0065L38.7279 14.3069L39.1718 14.1457L39.9288 14.8471L39.9037 14.8565Z" fill="#F19722"/>
</g>
<defs>
<clipPath id="clip0_43_33">
<rect width="25" height="18" fill="white" transform="translate(21.5)"/>
</clipPath>
</defs>
</svg>
